<svg width="49" height="28" viewBox="0 0 49 28" fill="none" xmlns="http://www.w3.org/2000/svg">
<path d="M5.64 0.503998V21.96H18.096V27H0.42V0.503998H5.64ZM21.1594 13.788C21.1594 11.388 21.7594 9.144 22.9594 7.056C24.1834 4.968 25.8274 3.312 27.8914 2.088C29.9794 0.839999 32.2354 0.215999 34.6594 0.215999C37.0834 0.215999 39.3274 0.839999 41.3914 2.088C43.4794 3.312 45.1354 4.968 46.3594 7.056C47.6074 9.144 48.2314 11.388 48.2314 13.788C48.2314 16.236 47.6074 18.492 46.3594 20.556C45.1354 22.62 43.4794 24.264 41.3914 25.488C39.3274 26.688 37.0834 27.288 34.6594 27.288C32.2114 27.288 29.9554 26.688 27.8914 25.488C25.8274 24.264 24.1834 22.62 22.9594 20.556C21.7594 18.492 21.1594 16.236 21.1594 13.788ZM26.5594 13.788C26.5594 15.324 26.9194 16.74 27.6394 18.036C28.3834 19.332 29.3794 20.364 30.6274 21.132C31.8994 21.876 33.3034 22.248 34.8394 22.248C36.3274 22.248 37.6834 21.876 38.9074 21.132C40.1314 20.364 41.0914 19.344 41.7874 18.072C42.4834 16.776 42.8314 15.348 42.8314 13.788C42.8314 12.204 42.4714 10.764 41.7514 9.468C41.0314 8.172 40.0474 7.152 38.7994 6.408C37.5754 5.64 36.2074 5.256 34.6954 5.256C33.1834 5.256 31.8034 5.64 30.5554 6.408C29.3314 7.152 28.3594 8.172 27.6394 9.468C26.9194 10.764 26.5594 12.204 26.5594 13.788Z" fill="#484D47"/>
</svg>
